<svg xmlns="http://www.w3.org/2000/svg" width="138" height="138" fill="none">
  <rect width="47.769" height="138" x="45.646" fill="#2260FF" rx="23.885"/>
  <rect width="46.708" height="138" x="138" y="45.646" fill="#2260FF" rx="23.354" transform="rotate(90 138 45.646)"/>
  <path fill="#fff" d="M42.918 44.508c12.292 1.751 20.264 10.715 25.876 20.355C71.9 70.29 74.52 76.071 78.59 80.698c3.02 3.452 6.559 6.351 10.444 8.92 2.593 1.7 5.34 3.212 8.782 3.7-1.882.275-3.715.18-5.427-.139-5.096-1.05-9.462-3.336-13.447-6.094-3.964-2.77-7.2-6.518-9.712-10.698-2.456-4.056-4.524-8.46-6.932-12.476-4.813-8.053-10.654-15.179-19.379-19.403Z"/>
  <path fill="#fff" d="M72.1 64.293s-14.58-12.83-7.79-30.05C69.904 20.05 77.875 17.324 77.476 6.04c5.775 5.101 16.258 18.374 11.415 34.084-4.738 15.37-16.791 24.17-16.791 24.17Z"/>
  <path fill="#2260FF" d="M77.477 6.04c6.998 8.537 7.1 18.953 3.656 29.302-3.067 9.725-8.493 18.268-9.751 28.438-.15-.882-.445-2.043-.465-2.953-.073-1.58.048-3.216.272-4.79 1.098-7.487 4.42-14.646 6.681-21.694 3.413-10.181 3.792-18.53-.393-28.304Z"/>
  <path fill="#fff" d="M67.593 75.83S52.826 52.787 36.08 60.128C22.276 66.179 20.056 71.3 5.56 67.744c5.248 5.491 16.98 17.78 34.746 15.918 15.825-1.66 27.287-7.832 27.287-7.832Z"/>
  <path fill="#2260FF" d="M5.333 67.956c7.5 4.187 16.365 5.004 24.55 3.042 1.437-.272 3.193-.88 4.6-1.284 10.91-3.845 24.725-2.36 33.099 6.13-9.479-4.525-20.744-5.136-30.643-1.954-.479.15-1.458.436-1.943.572-.38.106-2.232.632-2.573.718-1.207.215-2.493.484-3.706.642-.733.037-2.508.23-3.226.231-.534-.012-1.625-.032-2.161-.046-6.634-.321-13.634-2.902-17.997-8.051Z"/>
</svg>
